# xmcd
#
# Track frame offsets:
# 150
# 11512
# 27622
# 41552
# 56597
# 74907
# 90570
# 101595
# 116555
# 134292
# 147437
# 160505
#
# Disc length: 2308 seconds
#
#
# Revision: 0
# Processed by: cddbd v1.4PL0 Copyright (c) Steve Scherf et al.
# Submitted via: FreeRIP 2.30 
#
DISCID=a709020c
DTITLE=Charlie Louvin - The Longest Train
DYEAR=1996
DGENRE=Country
TTITLE0=When I Stop Dreaming
TTITLE1=In The Pines
TTITLE2=Cash On The Barrelhead
TTITLE3=I Don't Feel Like Dancing
TTITLE4=Who Knows Where The Time Goes
TTITLE5=Queen Of The Bayou
TTITLE6=Are You Wasting My Time
TTITLE7=Stone-Deaf, Dumb and Blind
TTITLE8=My Baby's Gone
TTITLE9=The Christian Life
TTITLE10=I Wanna Die Young
TTITLE11=Turn Around
EXTD=
EXTT0=
EXTT1=
EXTT2=
EXTT3=
EXTT4=
EXTT5=
EXTT6=
EXTT7=
EXTT8=
EXTT9=
EXTT10=
EXTT11=
PLAYORDER=
